<svg xmlns="http://www.w3.org/2000/svg" width="79.925" height="80.154" viewBox="0 0 79.925 80.154">
  <g id="logo" transform="translate(-158.998 -226.509) rotate(45)">
    <g id="Group_34871" data-name="Group 34871" transform="translate(300.771 38.528)">
      <path id="Path_36869" data-name="Path 36869" d="M3357.444,2263.634h-12.85a2.759,2.759,0,0,0-2.754,2.763v12.894a2.759,2.759,0,0,0,2.754,2.763h12.85a2.759,2.759,0,0,0,2.754-2.763V2266.4A2.759,2.759,0,0,0,3357.444,2263.634Zm-6.425,11.052a1.842,1.842,0,1,1,1.836-1.842A1.839,1.839,0,0,1,3351.019,2274.687Z" transform="translate(-3322.852 -2263.634)" fill="#fff"/>
      <path id="Path_36887" data-name="Path 36887" d="M3357.444,2263.634h-12.85a2.759,2.759,0,0,0-2.754,2.763v12.894a2.759,2.759,0,0,0,2.754,2.763h12.85a2.759,2.759,0,0,0,2.754-2.763V2266.4A2.759,2.759,0,0,0,3357.444,2263.634Z" transform="translate(-3341.84 -2263.634)" fill="#fff"/>
      <path id="Path_36886" data-name="Path 36886" d="M3357.444,2263.634h-12.85a2.759,2.759,0,0,0-2.754,2.763v12.894a2.759,2.759,0,0,0,2.754,2.763h12.85a2.759,2.759,0,0,0,2.754-2.763V2266.4A2.759,2.759,0,0,0,3357.444,2263.634Z" transform="translate(-3303.52 -2263.634)" fill="#fff"/>
    </g>
    <g id="Group_34873" data-name="Group 34873" transform="translate(300.933 57.657)">
      <path id="Path_36887-2" data-name="Path 36887" d="M3357.444,2263.634h-12.85a2.759,2.759,0,0,0-2.754,2.763v12.894a2.759,2.759,0,0,0,2.754,2.763h12.85a2.759,2.759,0,0,0,2.754-2.763V2266.4A2.759,2.759,0,0,0,3357.444,2263.634Z" transform="translate(-3341.84 -2263.634)" fill="#fff"/>
      <path id="Path_36886-2" data-name="Path 36886" d="M3357.444,2263.634h-12.85a2.759,2.759,0,0,0-2.754,2.763v12.894a2.759,2.759,0,0,0,2.754,2.763h12.85a2.759,2.759,0,0,0,2.754-2.763V2266.4A2.759,2.759,0,0,0,3357.444,2263.634Z" transform="translate(-3303.52 -2263.634)" fill="#fff"/>
      <path id="Path_36889" data-name="Path 36889" d="M3357.444,2263.634h-12.85a2.759,2.759,0,0,0-2.754,2.763v12.894a2.759,2.759,0,0,0,2.754,2.763h12.85a2.759,2.759,0,0,0,2.754-2.763V2266.4A2.759,2.759,0,0,0,3357.444,2263.634Z" transform="translate(-3322.838 -2263.634)" fill="#fff"/>
    </g>
    <g id="Group_34872" data-name="Group 34872" transform="translate(300.771 19.561)">
      <path id="Path_36887-3" data-name="Path 36887" d="M3357.444,2263.634h-12.85a2.759,2.759,0,0,0-2.754,2.763v12.894a2.759,2.759,0,0,0,2.754,2.763h12.85a2.759,2.759,0,0,0,2.754-2.763V2266.4A2.759,2.759,0,0,0,3357.444,2263.634Z" transform="translate(-3341.84 -2263.634)" fill="#fff"/>
      <path id="Path_36886-3" data-name="Path 36886" d="M3357.444,2263.634h-12.85a2.759,2.759,0,0,0-2.754,2.763v12.894a2.759,2.759,0,0,0,2.754,2.763h12.85a2.759,2.759,0,0,0,2.754-2.763V2266.4A2.759,2.759,0,0,0,3357.444,2263.634Z" transform="translate(-3303.52 -2263.634)" fill="#fff"/>
      <path id="Path_36888" data-name="Path 36888" d="M3357.444,2263.634h-12.85a2.759,2.759,0,0,0-2.754,2.763v12.894a2.759,2.759,0,0,0,2.754,2.763h12.85a2.759,2.759,0,0,0,2.754-2.763V2266.4A2.759,2.759,0,0,0,3357.444,2263.634Z" transform="translate(-3322.569 -2263.634)" fill="#fff"/>
    </g>
  </g>
</svg>
